<?xml version="1.0" encoding="utf-8"?>
<!-- Generator: Adobe Illustrator 22.0.0, SVG Export Plug-In . SVG Version: 6.00 Build 0)  -->
<svg version="1.1" id="Layer_1" xmlns="http://www.w3.org/2000/svg" xmlns:xlink="http://www.w3.org/1999/xlink" x="0px" y="0px"
	 viewBox="0 0 1232 822" style="enable-background:new 0 0 1232 822;" xml:space="preserve">
<style type="text/css">
	.st0{fill:#4A68DF;}
	.st1{clip-path:url(#SVGID_2_);fill:#5377E8;}
	.st2{clip-path:url(#SVGID_4_);fill:#84D1F1;}
</style>
<g>
	<path class="st0" d="M1232-1H0c29.1,15.7,64.1,43.8,84.3,92.9c28.5,69.2,27.5,148.3,63.1,214.9c13.2,24.7,31.5,47.7,58.3,67.9
		c98.7,74.3,223.8,142.2,246.8,266.2c32.2,174.1,327,237.3,473.1,121.8c47.6-37.7,83.2-65.9,113.1-87.3c62-44.2,100-59.2,170.7-67.5
		c7.8-0.9,15.4-2.5,22.6-4.5V35.5C1232,15.3,1232-1,1232-1z"/>
	<g>
		<defs>
			<polygon id="SVGID_1_" points="1197,-1 647,882 114,585 295,448 616,-54 			"/>
		</defs>
		<clipPath id="SVGID_2_">
			<use xlink:href="#SVGID_1_"  style="overflow:visible;"/>
		</clipPath>
		<path class="st1" d="M1232-1H0c29.1,15.7,64.1,43.8,84.3,92.9c28.5,69.2,27.5,148.3,63.1,214.9c13.2,24.7,31.5,47.7,58.3,67.9
			c98.7,74.3,223.8,142.2,246.8,266.2c32.2,174.1,327,237.3,473.1,121.8c47.6-37.7,83.2-65.9,113.1-87.3
			c62-44.2,100-59.2,170.7-67.5c7.8-0.9,15.4-2.5,22.6-4.5V35.5C1232,15.3,1232-1,1232-1z"/>
	</g>
	<g>
		<defs>
			<path id="SVGID_3_" d="M1232-1H0c29.1,15.7,64.1,43.8,84.3,92.9c28.5,69.2,27.5,148.3,63.1,214.9c13.2,24.7,31.5,47.7,58.3,67.9
				c98.7,74.3,223.8,142.2,246.8,266.2c32.2,174.1,327,237.3,473.1,121.8c47.6-37.7,83.2-65.9,113.1-87.3
				c62-44.2,100-59.2,170.7-67.5c7.8-0.9,15.4-2.5,22.6-4.5V35.5C1232,15.3,1232-1,1232-1z"/>
		</defs>
		<clipPath id="SVGID_4_">
			<use xlink:href="#SVGID_3_"  style="overflow:visible;"/>
		</clipPath>
		<polygon class="st2" points="617,-54 296,448 -141,307 -109,-144 		"/>
	</g>
</g>
</svg>
