<?xml version="1.0" encoding="utf-8"?>
<!-- Generator: Adobe Illustrator 22.0.0, SVG Export Plug-In . SVG Version: 6.00 Build 0)  -->
<svg version="1.1" id="OBJECTS" xmlns="http://www.w3.org/2000/svg" xmlns:xlink="http://www.w3.org/1999/xlink" x="0px" y="0px"
	 viewBox="0 0 269.3 99" style="enable-background:new 0 0 269.3 99;" xml:space="preserve">
<style type="text/css">
	.st0{fill:#84D1F1;}
	.st1{display:none;}
	.st2{display:inline;fill:#4A68DF;}
	.st3{fill:#83CDF1;}
	.st4{fill:#4A68DF;}
</style>
<circle class="st0" cx="257.3" cy="8" r="6.2"/>
<circle class="st0" cx="262.1" cy="26.2" r="2.4"/>
<circle class="st0" cx="40" cy="94.8" r="2.4"/>
<g class="st1">
	<path class="st2" d="M254.7,25.8c0,0.7-0.6,1.3-1.3,1.3c-0.7,0-1.3-0.6-1.3-1.3c0-0.7,0.6-1.3,1.3-1.3
		C254.1,24.5,254.7,25.1,254.7,25.8z"/>
	<path class="st2" d="M249,51.2c-0.7,0-1.3-0.6-1.3-1.3c0-0.7,0.6-1.3,1.3-1.3c0.7,0,1.3,0.6,1.3,1.3
		C250.3,50.6,249.7,51.2,249,51.2z"/>
</g>
<path class="st3" d="M7.6,72.5c1.5,0,2.7-1.2,2.7-2.7c0-1.5-1.2-2.7-2.7-2.7c-1.5,0-2.7,1.2-2.7,2.7C4.9,71.3,6.1,72.5,7.6,72.5z"/>
<path class="st4" d="M239.7,9.6c1.5,0,2.7-1.2,2.7-2.7s-1.2-2.7-2.7-2.7c-1.5,0-2.7,1.2-2.7,2.7S238.2,9.6,239.7,9.6z"/>
</svg>
