<?xml version="1.0" encoding="utf-8"?>
<!-- Generator: Adobe Illustrator 22.0.0, SVG Export Plug-In . SVG Version: 6.00 Build 0)  -->
<svg version="1.1" id="Capa_1" xmlns="http://www.w3.org/2000/svg" xmlns:xlink="http://www.w3.org/1999/xlink" x="0px" y="0px"
	 viewBox="0 0 44 44" style="enable-background:new 0 0 44 44;" xml:space="preserve">
<style type="text/css">
	.st0{fill:#84D1F0;}
</style>
<g>
	<g>
		<path class="st0" d="M37.6,6.4C33.4,2.3,27.9,0,22,0C16.1,0,10.6,2.3,6.4,6.4C2.3,10.6,0,16.1,0,22s2.3,11.4,6.4,15.6
			S16.1,44,22,44c5.9,0,11.4-2.3,15.6-6.4S44,27.9,44,22S41.7,10.6,37.6,6.4z M22,41.4C11.3,41.4,2.6,32.7,2.6,22S11.3,2.6,22,2.6
			S41.4,11.3,41.4,22S32.7,41.4,22,41.4z"/>
	</g>
</g>
<g>
	<g>
		<path class="st0" d="M32.5,14.9c-0.5-0.5-1.3-0.5-1.8,0L19.3,26.3l-6-6c-0.5-0.5-1.3-0.5-1.8,0c-0.5,0.5-0.5,1.3,0,1.8l6.9,6.9
			c0.3,0.3,0.6,0.4,0.9,0.4s0.7-0.1,0.9-0.4l12.3-12.3C33,16.3,33,15.4,32.5,14.9z"/>
	</g>
</g>
</svg>
