<?xml version="1.0" encoding="utf-8"?>
<!-- Generator: Adobe Illustrator 22.0.0, SVG Export Plug-In . SVG Version: 6.00 Build 0)  -->
<svg version="1.1" id="Layer_1" xmlns="http://www.w3.org/2000/svg" xmlns:xlink="http://www.w3.org/1999/xlink" x="0px" y="0px"
	 viewBox="0 0 30 22" style="enable-background:new 0 0 30 22;" xml:space="preserve">
<style type="text/css">
	.st0{fill:#888EA7;}
</style>
<path class="st0" d="M28.5,0.8c-0.1-0.1-0.1-0.1-0.2-0.2C27.8,0.3,27.1,0,26.4,0H3.6C2.9,0,2.2,0.3,1.7,0.7c0,0-0.1,0.1-0.1,0.1
	C1,1.3,0.6,2.1,0.6,3v16c0,1.6,1.3,3,3,3h22.9c1.6,0,3-1.3,3-3V3C29.4,2.1,29.1,1.4,28.5,0.8z M26.4,1.4c0.1,0,0.1,0,0.2,0L16,9.4
	c-0.6,0.4-1.3,0.4-1.9,0l-10.7-8c0.1,0,0.1,0,0.2,0H26.4z M28,19c0,0.9-0.7,1.6-1.6,1.6H3.6C2.7,20.6,2,19.9,2,19V3
	C2,2.7,2,2.5,2.2,2.3l11,8.3c0.5,0.4,1.2,0.6,1.8,0.6s1.3-0.2,1.8-0.6l11-8.3C28,2.5,28,2.7,28,3V19z"/>
</svg>
