<?xml version="1.0" encoding="utf-8"?>
<!-- Generator: Adobe Illustrator 22.0.0, SVG Export Plug-In . SVG Version: 6.00 Build 0)  -->
<svg version="1.1" id="Layer_1" xmlns="http://www.w3.org/2000/svg" xmlns:xlink="http://www.w3.org/1999/xlink" x="0px" y="0px"
	 viewBox="0 0 34 34" style="enable-background:new 0 0 34 34;" xml:space="preserve">
<style type="text/css">
	.st0{fill:#3C599B;}
	.st1{fill:#FFFFFF;}
</style>
<g id="g2986">
	<path id="path3" class="st0" d="M17,34C7.6,34,0,26.4,0,17S7.6,0,17,0s17,7.6,17,17S26.4,34,17,34z"/>
	<path id="path2989" class="st1" d="M20,14.8h-2v-1.3c0-0.5,0.3-0.6,0.6-0.6s1.4,0,1.4,0v-2.2l-2,0c-2.2,0-2.7,1.6-2.7,2.7v1.5H14
		V17h1.3c0,2.9,0,6.4,0,6.4h2.6c0,0,0-3.5,0-6.4h1.8L20,14.8L20,14.8z"/>
</g>
</svg>
