<?xml version="1.0" encoding="utf-8"?>
<!-- Generator: Adobe Illustrator 22.0.0, SVG Export Plug-In . SVG Version: 6.00 Build 0)  -->
<svg version="1.1" id="Layer_1" xmlns="http://www.w3.org/2000/svg" xmlns:xlink="http://www.w3.org/1999/xlink" x="0px" y="0px"
	 viewBox="0 0 34 34" style="enable-background:new 0 0 34 34;" xml:space="preserve">
<style type="text/css">
	.st0{fill:url(#path3_1_);}
	.st1{fill:#FFFFFF;}
</style>
<g id="g2986">
	<linearGradient id="path3_1_" gradientUnits="userSpaceOnUse" x1="0" y1="17" x2="34" y2="17">
		<stop  offset="0" style="stop-color:#DC1A41"/>
		<stop  offset="0.1009" style="stop-color:#DC2F41"/>
		<stop  offset="0.218" style="stop-color:#DC4141"/>
		<stop  offset="0.3452" style="stop-color:#DC4B41"/>
		<stop  offset="0.5" style="stop-color:#DC4E41"/>
		<stop  offset="0.7564" style="stop-color:#DC4C41"/>
		<stop  offset="0.8488" style="stop-color:#DC4541"/>
		<stop  offset="0.9146" style="stop-color:#DC3A41"/>
		<stop  offset="0.9675" style="stop-color:#DC2941"/>
		<stop  offset="1" style="stop-color:#DC1A41"/>
	</linearGradient>
	<path id="path3" class="st0" d="M17,34C7.6,34,0,26.4,0,17C0,7.6,7.6,0,17,0s17,7.6,17,17C34,26.4,26.4,34,17,34z"/>
</g>
<g>
	<path class="st1" d="M7.2,17.2C7.1,14,9.9,11,13.1,11c1.6-0.1,3.2,0.5,4.5,1.5c-0.5,0.6-1,1.1-1.6,1.6c-1.1-0.7-2.4-1.2-3.7-0.7
		c-2.1,0.6-3.3,3-2.5,5c0.6,2.1,3.2,3.3,5.2,2.4c1-0.4,1.7-1.3,2-2.4c-1.2,0-2.4,0-3.6,0c0-0.7,0-1.4,0-2.1c2,0,4,0,6,0
		c0.1,1.7-0.1,3.6-1.3,5c-1.5,2-4.4,2.6-6.7,1.8C8.9,22.3,7.1,19.8,7.2,17.2L7.2,17.2z"/>
	<path class="st1" d="M23.2,14.6H25c0,0.6,0,1.2,0,1.8c0.6,0,1.2,0,1.8,0v1.8c-0.6,0-1.2,0-1.8,0c0,0.6,0,1.2,0,1.8
		c-0.6,0-1.2,0-1.8,0c0-0.6,0-1.2,0-1.8c-0.6,0-1.2,0-1.8,0v-1.8c0.6,0,1.2,0,1.8,0C23.2,15.7,23.2,15.1,23.2,14.6L23.2,14.6z"/>
</g>
</svg>
