<?xml version="1.0" encoding="utf-8"?>
<!-- Generator: Adobe Illustrator 22.0.0, SVG Export Plug-In . SVG Version: 6.00 Build 0)  -->
<svg version="1.1" id="Layer_1" xmlns="http://www.w3.org/2000/svg" xmlns:xlink="http://www.w3.org/1999/xlink" x="0px" y="0px"
	 viewBox="0 0 34 34" style="enable-background:new 0 0 34 34;" xml:space="preserve">
<style type="text/css">
	.st0{fill:#007AB9;}
	.st1{fill:#FFFFFF;}
</style>
<g id="g2986">
	<path id="path3" class="st0" d="M17.1,34c-9.4,0-17-7.6-17-17c0-9.4,7.6-17,17-17s17,7.6,17,17C34.1,26.4,26.4,34,17.1,34z"/>
</g>
<g>
	<rect x="10.5" y="14.8" class="st1" width="2.9" height="8.6"/>
	<path class="st1" d="M12,10.6c-1,0-1.6,0.6-1.6,1.5c0,0.8,0.6,1.5,1.6,1.5h0c1,0,1.6-0.7,1.6-1.5C13.6,11.2,13,10.6,12,10.6z"/>
	<path class="st1" d="M20.5,14.6c-1.5,0-2.2,0.8-2.6,1.4v-1.2H15c0,0.8,0,8.6,0,8.6h2.9v-4.8c0-0.3,0-0.5,0.1-0.7
		c0.2-0.5,0.7-1,1.5-1c1,0,1.5,0.8,1.5,2v4.6h2.9v0v-5C23.8,15.8,22.3,14.6,20.5,14.6z"/>
</g>
</svg>
