<?xml version="1.0" encoding="utf-8"?>
<!-- Generator: Adobe Illustrator 22.0.0, SVG Export Plug-In . SVG Version: 6.00 Build 0)  -->
<svg version="1.1" id="Layer_1" xmlns="http://www.w3.org/2000/svg" xmlns:xlink="http://www.w3.org/1999/xlink" x="0px" y="0px"
	 viewBox="0 0 196 44" style="enable-background:new 0 0 196 44;" xml:space="preserve">
<style type="text/css">
	.st0{fill:#4B68E0;}
	.st1{fill:#84D1F2;}
	.st2{fill:#5477E8;}
	.st3{fill:#2B2D3D;}
</style>
<g>
	<path class="st0" d="M31.5,19.9L14.9,44h23.9c2.5,0,4.2-2.7,3-4.9L31.5,19.9z"/>
	<path class="st1" d="M3.4,0C1.5,0,0,1.5,0,3.3v32L23.4,0H3.4z"/>
	<path class="st2" d="M32.6,22l6.7-17.5C40.2,2.3,38.5,0,36.2,0H23.4L0,35.3v5.3C0,42.5,1.5,44,3.4,44h14.9"/>
</g>
<g>
	<path class="st3" d="M60.8,20.8l0.5-0.7L72.6,8.4h4.8L66,20.2l12.1,15.7h-4.7L63.2,22.5l-2.3,2.2l0,11.1h-3.8V8.4h3.8v11.1
		L60.8,20.8z"/>
	<path class="st3" d="M100.7,28.6H90l-3,7.2h-3.7L95.5,7.2h0.2l12.1,28.6h-4.3L100.7,28.6z M99.4,25.4l-4-10l-4.1,10H99.4z"/>
	<path class="st3" d="M132.1,24.2c0.9,1.1,1.4,2.4,1.4,3.9c0,1.8-0.4,3.2-1.3,4.4c-0.9,1.2-2,2-3.4,2.5c-1.4,0.5-2.9,0.8-4.6,0.8
		h-8.3V8.4h7.2c2.8,0,5,0.6,6.6,1.7c1.6,1.2,2.3,2.9,2.3,5.2c0,1.4-0.3,2.7-1,3.8c-0.7,1.1-1.6,1.9-2.8,2.5
		C129.9,22.2,131.2,23.1,132.1,24.2z M119.7,20.4h4.2c1.4,0,2.5-0.4,3.2-1.2c0.7-0.8,1.1-1.9,1.1-3.1c0-1.4-0.4-2.4-1.3-3.1
		c-0.9-0.7-2.1-1-3.6-1h-3.6V20.4z M128,31.4c1-0.7,1.6-1.8,1.6-3.2c0-1.4-0.6-2.5-1.7-3.2c-1.1-0.7-2.5-1-4.1-1h-4.1v8.5h4.4
		C125.7,32.4,127,32.1,128,31.4z"/>
	<path class="st3" d="M156.5,28.6h-10.7l-3,7.2h-3.7l12.1-28.6h0.2l12.1,28.6h-4.3L156.5,28.6z M155.3,25.4l-4-10l-4.1,10H155.3z"/>
	<path class="st3" d="M196,8.4v28.4h-0.1l-20.4-20.5l0.1,19.6h-3.8V7.5h0.2l20.4,20.7l-0.1-19.9H196z"/>
</g>
</svg>
