<?xml version="1.0" encoding="utf-8"?>
<!-- Generator: Adobe Illustrator 22.0.0, SVG Export Plug-In . SVG Version: 6.00 Build 0)  -->
<svg version="1.1" id="Layer_1" xmlns="http://www.w3.org/2000/svg" xmlns:xlink="http://www.w3.org/1999/xlink" x="0px" y="0px"
	 viewBox="0 0 178 40" style="enable-background:new 0 0 178 40;" xml:space="preserve">
<style type="text/css">
	.st0{fill:#4B68E0;}
	.st1{fill:#84D1F2;}
	.st2{fill:#5477E8;}
	.st3{fill:#99A3CF;}
</style>
<g>
	<path class="st0" d="M28.6,18.1L13.6,40h21.7c2.3,0,3.8-2.4,2.7-4.5L28.6,18.1z"/>
	<path class="st1" d="M3.1,0C1.4,0,0,1.3,0,3v29.1L21.3,0H3.1z"/>
	<path class="st2" d="M29.6,20l6.1-15.9C36.5,2.1,35,0,32.9,0H21.3L0,32.1v4.8c0,1.7,1.4,3,3.1,3h13.5"/>
</g>
<g>
	<path class="st3" d="M55.2,18.9l0.4-0.7L66,7.6h4.4L59.9,18.3l11,14.3h-4.3l-9.2-12.1l-2.1,2l0,10.1h-3.5v-25h3.5v10.1L55.2,18.9z"
		/>
	<path class="st3" d="M91.4,26h-9.7l-2.7,6.6h-3.3l11-26h0.2l11,26h-3.9L91.4,26z M90.3,23.1L86.7,14L83,23.1H90.3z"/>
	<path class="st3" d="M119.9,22c0.8,1,1.3,2.2,1.3,3.6c0,1.6-0.4,2.9-1.2,4c-0.8,1-1.8,1.8-3.1,2.3c-1.3,0.5-2.7,0.7-4.2,0.7h-7.5
		v-25h6.5c2.6,0,4.6,0.5,6,1.6c1.4,1,2.1,2.6,2.1,4.7c0,1.3-0.3,2.5-0.9,3.4c-0.6,1-1.4,1.7-2.5,2.3C118,20.2,119.1,20.9,119.9,22z
		 M108.7,18.5h3.8c1.3,0,2.3-0.4,2.9-1.1c0.7-0.7,1-1.7,1-2.8c0-1.3-0.4-2.2-1.2-2.8c-0.8-0.6-1.9-0.9-3.3-0.9h-3.3V18.5z
		 M116.3,28.5c1-0.7,1.4-1.6,1.4-2.9c0-1.3-0.5-2.3-1.6-2.9c-1-0.6-2.3-0.9-3.8-0.9h-3.7v7.7h4C114.1,29.5,115.3,29.1,116.3,28.5z"
		/>
	<path class="st3" d="M142.2,26h-9.7l-2.7,6.6h-3.3l11-26h0.2l11,26h-3.9L142.2,26z M141,23.1l-3.6-9.1l-3.7,9.1H141z"/>
	<path class="st3" d="M178,7.6v25.8h-0.1l-18.5-18.6l0.1,17.8H156V6.8h0.2l18.5,18.9l-0.1-18.1H178z"/>
</g>
</svg>
