<?xml version="1.0" encoding="utf-8"?>
<!-- Generator: Adobe Illustrator 22.0.0, SVG Export Plug-In . SVG Version: 6.00 Build 0)  -->
<svg version="1.1" id="Objects" xmlns="http://www.w3.org/2000/svg" xmlns:xlink="http://www.w3.org/1999/xlink" x="0px" y="0px"
	 viewBox="0 0 514 425" style="enable-background:new 0 0 514 425;" xml:space="preserve">
<style type="text/css">
	.st0{fill:#D6DDEA;}
	.st1{fill:#D84835;}
	.st2{fill:#F25F46;}
	.st3{fill:#FFAF84;}
	.st4{fill:#293549;}
	.st5{fill:#ED8C62;}
	.st6{fill:#4A68DF;}
	.st7{fill:#B6D0FF;}
	.st8{fill:#3972D8;}
	.st9{fill:#A56650;}
	.st10{clip-path:url(#SVGID_2_);fill:#E0E0E0;}
	.st11{fill:#A7ADAF;}
	.st12{fill:#D8D8D8;}
	.st13{fill:#FFFFFF;}
	.st14{fill:#1E294C;}
	.st15{fill:#273260;}
	.st16{fill:#84D1F1;}
	.st17{fill:#54ABC6;}
	.st18{fill:#F78834;}
	.st19{clip-path:url(#SVGID_4_);fill:#E0E0E0;}
	.st20{fill:#F46F6B;}
	.st21{fill:#F3F4F8;}
	.st22{fill:#E6E6E8;}
</style>
<g>
	<g>
		<g>
			<g>
				<polygon class="st0" points="62.9,407.2 64.3,385.3 74.5,386.4 70.7,408.7 				"/>
				<path class="st1" d="M71.6,403.5c0.7,0.1,1.3,0.3,1.8,0.7c3.5,2.9,7.7,6.1,10.8,7.3c5.2,2,8.3,5.2,0.1,5.2
					c-8.1,0-10.6-0.3-13.1-0.3c-3.6-0.1-2,0.3-11,0.3c-4.5,0-2.4-8.4,0.1-12.4c0.7-1.2,1-2.3,2.5-2L71.6,403.5z"/>
			</g>
			<g>
				<polygon class="st0" points="89.1,407.2 93.7,385.8 103.9,386.9 97,408.7 				"/>
				<path class="st2" d="M98.4,403.5c0.7,0.1,1.3,0.3,1.8,0.7c3.5,2.9,14,8,19.4,8.8c5.8,0.8,6.1,3.7-2.1,3.7
					c-8.1,0-14.1-0.7-17.7-0.6c-3.6,0.1-5,0.6-13.9,0.6c-6.8,0-2.4-8.7,0.1-12.8c0.7-1.2,2.2-1.9,3.7-1.7L98.4,403.5z"/>
			</g>
			<path class="st3" d="M195,20.6c-2.6,2-5.4,3.6-7.8,5c-1.6,0.2-3.4,1-4.8,1.9c-1.8,1.2-10.6,7.4-12.9,15.2
				c-1.2,2.5-2.3,4.9-3.6,7.3c-0.3,0.5-0.5,1-0.8,1.6c-0.3,0.5-0.5,1-0.7,1.4c-1.2,2.3-2.4,4.6-3.6,6.7c-4.6,8.2-8.7,14.5-10.7,15.7
				c-7.1,3.6-28.4,1.2-41.2-1.7c-3.9-0.8-7.8,1.6-8.6,5.5c-0.9,3.9,1.6,7.8,5.5,8.6c3.9,0.9,18.2,3.8,31.7,3.8
				c7.2,0,14.2-0.9,19.2-3.4c5.2-2.6,10.2-13.3,13.9-23.1c0.8-2.1,1.6-4.3,2.3-6.2c0.5-1.5,1-2.9,1.5-4.2c0-0.1,0.1-0.2,0.1-0.3
				c0.7-2.3,1.4-4.1,1.8-5.4c0.9-2.5,1.5-3.6,2.3-5.5c0.8-1.9,8.7-1.9,11.9-4.1c3.4-2.2,3-7.9,1.6-11.7c-0.1-0.3-0.3-0.5-0.4-0.7
				c0.6-0.4,1.2-0.8,1.9-1.2C198.1,23,201.9,15.3,195,20.6z"/>
			<path class="st3" d="M111.8,36.1C111.8,21,100.6,9,85.6,9c-15,0-27.2,12.2-27.2,27.2c0,10.5,5.6,22,14.2,26.6
				c-0.3,6.7,0.4,14,4.5,20.7c4.4,7,5.3,8.4,5.4,8.6c1.6,2.7,4.4,4.2,7.4,4.2c1.5,0,3-0.4,4.4-1.2c4.1-2.4,5.4-7.7,3-11.7
				c0,0-0.7-1.2-5.6-8.9c-1.2-1.9-2-4-1.9-8.7C107,68.8,111.8,49.6,111.8,36.1z"/>
			<path class="st4" d="M65.2,234.1c0,0-7.4-18.8-2.6-44.9h61c0,0,1.6,18.4,0.2,38.2L65.2,234.1z"/>
			<path class="st4" d="M76,212.2c-0.1,0-0.1,0-0.2,0c-6.6,0-14.5,0-12.2,14.6c0.1,0.6,2.8,59.3,0.8,84c-1.9,23.3-3.5,87.8-3.6,88.5
				h13.5c0-0.7,12.5-63.5,14.3-86.6c2-25.4,3.7-83.2,3.7-85.6C92.5,220.5,82.7,212.3,76,212.2z"/>
			<path class="st4" d="M123.8,224.7c-0.5-6.7-7.1-10.3-13.8-9.8c-6.7,0.5-20.2,5.8-19.8,12.5c0,0.5,11.9,51.4,12.4,74.4
				c0.4,20.4-1.2,37.3-14.8,97.8l13.3,0.9c3-8,26.5-70.5,25.9-99.2C126.6,277.7,124,226.8,123.8,224.7z"/>
			<path class="st3" d="M67.1,81.1c0,0-9.9,47.4-11.8,56.1c-0.7,3.3-3.1,5.8-6.4,6.5c-0.7,0.2-1.3,0.3-2.1,0.3
				c-2.9,0-5.8-4.4-14.5-17.3c-0.3-0.4-0.5-0.8-0.8-1.2c-1-1.5-2.1-3.1-3.2-4.8c-0.3-0.4-0.6-0.9-0.9-1.3c-2-2.9-4.3-6.2-6.8-9.8
				c-2.5,0.9-10,5-12.9,5c-4,0-8.9-0.4-7.4-4.1c1.7-3.9,5.6-6.5,9.3-7.6c2-0.6,5.7-1.6,7.2-2.5c0.1-0.1,0.2-0.1,0.3-0.2
				c0.2-0.1,0.4-0.2,0.7-0.3c0.2-0.1,0.4-0.2,0.7-0.2c0.2-0.1,0.5-0.1,0.7-0.2c0.3,0,0.5-0.1,0.7-0.1c0.2,0,0.4,0,0.7,0
				c0.2,0,0.5,0,0.7,0.1c0.2,0,0.4,0.1,0.6,0.1c0.3,0.1,0.5,0.1,0.7,0.2c0.2,0.1,0.4,0.1,0.6,0.2c0.2,0.1,0.4,0.2,0.7,0.3
				c0.2,0.1,0.4,0.2,0.6,0.3c0.2,0.1,0.4,0.3,0.6,0.4c0.2,0.1,0.4,0.3,0.5,0.5c0.2,0.2,0.3,0.4,0.5,0.5c0.1,0.1,0.2,0.2,0.2,0.3
				c2.8,3.8,5.9,8,8.9,11.8c0.3,0.4,0.7,0.9,1,1.3c1.3,1.6,2.5,3.1,3.7,4.5c0.3,0.4,0.7,0.8,1,1.2c0.9,1,1.7,2,2.5,2.8
				c0.5-2.3,1-4.7,1.5-7.3c0.1-0.3,0.2-0.7,0.2-1.1C48.6,99,53,78.1,53,78.1L67.1,81.1z"/>
			<path class="st5" d="M40.9,121l-8.5,5.6c-0.3-0.4-0.5-0.8-0.8-1.2c-1-1.5-2.1-3.1-3.2-4.8c-0.3-0.4-0.6-0.9-0.9-1.3l7.9-5.2
				c0.3,0.4,0.7,0.9,1,1.3c1.3,1.6,2.5,3.1,3.7,4.5C40.3,120.3,40.6,120.6,40.9,121z"/>
			<path class="st6" d="M162.6,53.7c-8.7,16.8-12.7,20.3-13.3,20.7c-6.5,3.1-22,1.8-34.4-0.7c-3.1-0.9-5.6-1.5-6.6-1.5H57.8
				c-2.9,0-5.2,2-5.9,4.6l0,0c0,0-5.7,27-9.3,44.2c-0.9-1-1.8-2.2-2.9-3.5l-13.3,10.7c10.2,12.4,15.4,16.8,20.6,16.9c0,0,0,0,0.1,0
				c0.8,0,1.6-0.1,2.4-0.3c1-0.2,1.9-0.6,2.7-1.1c2.2-1.3,3.9-3.6,4.4-6.3c0.4-1.8,1.2-5.4,2.1-10c2.8,23.5,7.1,28.3,3.9,61.8h61
				c0,0-2.3-62.2-6.6-95.5c6,0.9,14.6,1.2,22.3,0.5c7.4-0.7,12.8-2,17.9-4.6c2.5-1.2,5.5-2.7,18.1-26.8L162.6,53.7z"/>
			<path class="st7" d="M39.7,117.6l-13.3,10.7c-0.7-0.8-1.4-1.7-2.1-2.6L37.6,115C38.4,116,39.1,116.8,39.7,117.6z"/>
			<path class="st5" d="M174.3,54.6c0,0.1-0.1,0.2-0.1,0.3c-0.4,1.3-0.9,2.7-1.5,4.2l-8.4-6c0.2-0.5,0.5-0.9,0.7-1.4
				c0.3-0.5,0.5-1,0.8-1.6L174.3,54.6z"/>
			<path class="st7" d="M176.6,60.1c-0.5,0.9-0.9,1.8-1.4,2.7l-12.6-9.1c0.4-0.9,0.9-1.8,1.4-2.7L176.6,60.1z"/>
			<path class="st8" d="M58.7,127.5c-1,4.5-1.7,8.1-2.1,9.9c-0.6,2.8-2.2,5-4.4,6.3l3.1-42.8C56.4,109.1,57.6,118.2,58.7,127.5z"/>
			<path class="st9" d="M112.8,4.7c0,0-0.5,4.2-10.1-0.2c-18-8.1-36.4-3.8-41.4,0c-4.9,3.7-5.6,7.6-4.1,10.7
				c-4,3.6-6.6,8.5-6.6,12.1C50.6,42.9,60.4,58.7,71,58.7c17,0,24.4-20.7,23.5-32.6c-0.1-1.1-0.2-2.1-0.3-3.2
				c0.5,0.1,1.1,0.2,1.6,0.3C115.7,27,112.8,4.7,112.8,4.7z"/>
			<path class="st3" d="M85.2,37.4c0,2.9,1.3,5.4,3.3,7.1c2.4,2,6,0.2,6-2.9v-8.4c0-3.1-3.6-4.9-6-2.9C86.4,32,85.2,34.5,85.2,37.4z
				"/>
		</g>
		<g>
			<defs>
				<path id="SVGID_1_" d="M123.5,189.2c0,0-2.3-62.2-6.6-95.5c6,0.9,14.6,1.2,22.3,0.5c7.4-0.7,12.8-2,17.9-4.6
					c2.5-1.2,5.5-2.7,18.1-26.8c0.5-0.9,0.9-1.8,1.4-2.7l-3.4-2.4c0.3-0.9,0.7-1.8,0.9-2.7c0-0.1,0.1-0.2,0.1-0.3
					c0.7-2.3,1.4-4.1,1.8-5.4c0.9-2.5,1.5-3.6,2.3-5.5c0.8-1.9,8.7-1.9,11.9-4.1c3.4-2.2,3-7.9,1.6-11.7c-0.1-0.3-0.3-0.5-0.4-0.7
					c0.6-0.4,1.2-0.8,1.9-1.2c4.6-3.1,8.4-10.8,1.6-5.5c-2.6,2-5.4,3.6-7.8,5c-1.6,0.2-3.4,1-4.8,1.9c-1.8,1.2-10.6,7.4-12.9,15.2
					c-1.2,2.5-2.3,4.9-3.6,7.3c-0.3,0.5-0.5,1-0.8,1.6c0,0,0,0,0,0.1l-1.1-0.8c-0.5,1-1,1.9-1.4,2.7c-8.7,16.8-12.7,20.3-13.3,20.7
					c-6.5,3.1-22,1.8-34.4-0.7c-3.1-0.9-5.6-1.5-6.6-1.5H90.6c-0.6-1.5-1-3.5-0.9-6.7c17.3,3.3,22.2-15.9,22.2-29.5
					c0-5.5-1.5-10.5-4.1-14.8c6.6-5.1,5.1-16.6,5.1-16.6s-0.5,4.2-10.1-0.2c-18-8.1-36.4-3.8-41.4,0c-4.9,3.7-5.6,7.6-4.1,10.7
					c-4,3.6-6.6,8.5-6.6,12.1c-0.1,13.1,6.9,26.4,15.5,30.2c1.9,2.2,4,4,6.4,5.2c-0.2,3.1-0.1,6.3,0.4,9.5H57.8
					c-2.9,0-5.2,2-5.9,4.6l0,0c0,0-5.7,27-9.3,44.2c-0.9-1-1.8-2.2-2.9-3.5c-0.7-0.8-1.4-1.7-2.1-2.6l-1,0.8
					c-0.1-0.1-0.2-0.3-0.4-0.4c-0.3-0.4-0.7-0.9-1-1.3c-3-3.8-6.1-7.9-8.9-11.8c-0.1-0.1-0.2-0.2-0.2-0.3c-0.2-0.2-0.3-0.4-0.5-0.5
					c-0.2-0.2-0.3-0.3-0.5-0.5c-0.2-0.2-0.4-0.3-0.6-0.4c-0.2-0.1-0.4-0.2-0.6-0.3c-0.2-0.1-0.4-0.2-0.7-0.3
					c-0.2-0.1-0.4-0.2-0.6-0.2c-0.2-0.1-0.4-0.1-0.7-0.2c-0.2-0.1-0.4-0.1-0.6-0.1c-0.2,0-0.5-0.1-0.7-0.1c-0.2,0-0.4,0-0.7,0
					c-0.2,0-0.5,0.1-0.7,0.1c-0.2,0.1-0.4,0.1-0.7,0.2c-0.2,0.1-0.4,0.1-0.7,0.2c-0.2,0.1-0.5,0.2-0.7,0.3c-0.1,0.1-0.2,0.1-0.3,0.2
					c-1.5,0.9-5.2,1.9-7.2,2.5c-3.8,1.1-7.7,3.7-9.3,7.6c-1.6,3.7,3.4,4.1,7.4,4.1c3,0,10.4-4.1,12.9-5c2.5,3.6,4.8,6.9,6.8,9.8
					c0.3,0.4,0.6,0.9,0.9,1.3c0.3,0.4,0.5,0.8,0.8,1.2l-4.8,3.8c0.7,0.9,1.4,1.8,2.1,2.6c10.2,12.4,15.4,16.8,20.6,16.9
					c0,0,0,0,0.1,0c0.8,0,1.6-0.1,2.4-0.3c1-0.2,1.9-0.6,2.7-1.1c2.2-1.3,3.9-3.6,4.4-6.3c0.1-0.5,0.2-1.1,0.4-1.7
					c0.4-2,1-4.8,1.7-8.2c2.8,23.4,7,28.2,3.9,61.7 M62.6,189.2c-0.3,1.9-0.6,3.7-0.8,5.5h-1.2v1.3h1.1c-1.7,14.9,0.4,26.8,2.1,33.1
					c0.5,11,2.5,59.8,0.7,81.7c-1.9,23.3-3.5,87.8-3.6,88.5h2.6l-0.2,2.9l-0.4-0.1c-1.5-0.2-1.7,0.8-2.5,2
					c-2.4,4.1-4.5,12.4-0.1,12.4c9.1,0,7.4-0.4,11-0.3c2.5,0.1,4.9,0.3,13.1,0.3c0.4,0,0.8,0,1.2,0c0.1,0,0.2,0,0.4,0
					c8.9,0,10.3-0.5,13.9-0.6c3.6-0.1,9.6,0.6,17.7,0.6c8.1,0,7.8-2.9,2.1-3.7c-5.4-0.8-15.9-5.9-19.4-8.8c-0.4-0.4-1-0.6-1.5-0.7
					l1-3.2l1.5,0.1c3-8,26.5-70.5,25.9-99.2c-0.4-22.1-2.7-68.1-3.2-75.6c1.2-19.2-0.3-36.4-0.3-36.4 M90.2,402.3l-0.6-0.1
					c-1.5-0.2-3,0.5-3.7,1.7c-1.1,1.8-2.5,4.5-3.3,6.9c-2.9-1.5-6.4-4.2-9.3-6.6c-0.5-0.4-1.1-0.6-1.7-0.7l0.7-4.1h2.1
					c0-0.7,12.5-63.5,14.3-86.6c1.6-19.9,2.9-59.5,3.5-77c3.4,15.5,10.2,48.7,10.5,66c0.4,20.4-1.2,37.3-14.8,97.8l2.9,0.2
					L90.2,402.3z"/>
			</defs>
			<clipPath id="SVGID_2_">
				<use xlink:href="#SVGID_1_"  style="overflow:visible;"/>
			</clipPath>
			<path class="st10" d="M37-29.3C13.9-52.7-6.7-61.8-36.1-60.6c-22.4,0.9-45.6,4.4-58.2,36.1c-19.3,48.4,21.9,75.4,15.5,123.9
				c-5.5,41.7-41.9,41.5-52,85.4c-5.3,22.9,6,53.6,34.4,85.7c50.1,56.6,161.9,65.2,193.5-53.5C120.1,130.5,85.2,19.4,37-29.3z"/>
		</g>
	</g>
	<g>
		<g id="_x3C_grupa_x3E_">
			<g>
				<g>
					<path class="st11" d="M286.8,202.8h72.7c2.4,0,3.7-1.9,3.1-4.3l-12.2-43.1c-0.7-2.4-3.1-4.3-5.5-4.3h-72.7
						c-2.4,0-3.7,1.9-3.1,4.3l12.2,43.1C282,200.8,284.5,202.8,286.8,202.8z"/>
					<path class="st12" d="M288.4,202.8h72.7c2.3,0,3.7-1.9,3.1-4.3L352,155.4c-0.7-2.4-3.1-4.3-5.5-4.3h-72.7
						c-2.4,0-3.7,1.9-3.1,4.3l12.2,43.1C283.6,200.8,286.1,202.8,288.4,202.8z"/>
				</g>
				<path class="st13" d="M288.2,192.4l-8-28.3c-0.9-3.1,1.4-6.1,4.6-6.1h57.3c2.1,0,4,1.4,4.6,3.5l8,28.3c0.9,3.1-1.4,6.1-4.6,6.1
					h-57.3C290.7,195.9,288.8,194.4,288.2,192.4z"/>
			</g>
			<g>
				<path class="st11" d="M283.7,203.6c0.3,0.8,1.1,1.4,2.1,1.4h76.7c1,0,1.8-0.6,2.1-1.4c0.1-0.4-0.1-0.8-0.6-0.8h-79.8
					C283.9,202.8,283.6,203.2,283.7,203.6z"/>
				<path class="st11" d="M303.7,203.6c0.3,0.8,1.1,1.4,2.1,1.4h76.7c1,0,1.8-0.6,2.1-1.4c0.1-0.4-0.1-0.8-0.6-0.8h-79.8
					C303.8,202.8,303.5,203.2,303.7,203.6z"/>
				<path class="st11" d="M336.8,202.8v0.4c0,0.4,0.3,0.8,0.8,0.8h13c0.4,0,0.8-0.3,0.8-0.8v-0.4H336.8z"/>
			</g>
		</g>
		<g>
			<path class="st14" d="M404.8,212.1c-1-6.7-7.1-11.3-13.8-10.3c-7.2,1.1-70.2,11.4-79.6,52.4c-5.8,25,11.2,68.3,24.6,103l11.6-3.4
				c-9.6-29.6-15.5-80.5-12.4-94.1c4.9-21.1,45.6-31.7,59.4-33.8C401.2,224.9,405.8,218.7,404.8,212.1z"/>
			<path class="st3" d="M409.8,30.3c-0.1-0.1-0.3-0.2-0.4-0.3c-2.8-12-13.6-24.1-26.5-24.1c-12.7,0-23.3,11.8-26.3,23.6
				c-0.8,0-1.6,0.2-2.2,0.8c-2,1.7-3.3,4.3-3.3,7.1c0,2.9,1.3,5.4,3.3,7.1c0.9,0.7,1.9,1,2.9,0.8c2.5,7.3,10.1,18.9,21.6,19.7
				c0.1,4.5-0.7,7.3-2,9.3c-4.9,7.7-5.6,8.9-5.6,8.9c-2.4,4.1-1.1,9.3,3,11.7c1.4,0.8,2.9,1.2,4.4,1.2c2.9,0,5.7-1.5,7.3-4.2
				c0.1-0.1,1-1.6,5.4-8.6c4.2-6.6,4.9-14.5,4.5-21.2c6-3.2,10.4-10.5,12.7-17.1c0.4-0.1,0.8-0.3,1.2-0.6c2-1.7,3.3-4.3,3.3-7.1
				C413.1,34.5,411.8,32,409.8,30.3z"/>
			<path class="st15" d="M403.2,228.9c0,0,7.4-13.6,2.6-39.7h-61c0,0-0.9,19.8,0.5,39.7H403.2z"/>
			<path class="st15" d="M357.6,205.1c-11,0-20.7-0.1-29.4-0.1c-45-0.3-58.6-0.5-65,11.1c-2.2,4-3.7,10.6,1.9,19.4
				c14.2,22.2,63.3,56.9,68.6,61.2l9.1-11.4c-11.7-9.5-37.2-38.8-51.6-55.8c8.9-0.5,22.6-0.4,36.8-0.2c8.7,0.1,18.6,0.1,29.6,0.1
				c6.7,0,12.2-5.5,12.2-12.2S364.3,205.1,357.6,205.1z"/>
			<path class="st3" d="M448.4,131.8c0-5.6-5.9-16.9-13.3-28.7c-6-9.5-13-19.4-18.3-26.7c-2.4-3.2-6.9-3.9-10.1-1.6
				c-3.2,2.4-4,6.9-1.6,10.1c6.3,8.7,13,18.4,18.2,26.8c5.5,8.7,9.6,16,10.4,19.2c-2.7,5.3-18.7,21.5-32.8,34.1
				c-0.2,0.2-0.4,0.4-0.6,0.6c-0.1,0.1-0.2,0.2-0.3,0.3c-0.2,0.3-0.4,0.6-0.6,0.9c-0.1,0.1-0.1,0.2-0.2,0.3c-0.2,0.3-0.3,0.7-0.4,1
				c0,0.1-0.1,0.2-0.1,0.3c-0.1,0.3-0.1,0.7-0.2,1c0,0.1,0,0.2-0.1,0.3c0,0.3,0,0.7,0,1c0,0.1,0,0.3,0,0.4c0,0.3,0.1,0.6,0.2,0.9
				c0,0.2,0.1,0.3,0.1,0.5c0.1,0.3,0.2,0.6,0.4,0.8c0.1,0.2,0.1,0.3,0.2,0.5c0.2,0.3,0.3,0.5,0.5,0.8c0.1,0.1,0.2,0.3,0.3,0.4
				c0,0,0.1,0.1,0.1,0.1c0,0,0,0,0,0.1c0,0,0,0,0,0c1.2,1.4,6,6.7,11.9,8.7c0.8,0.3,1.6,0.4,2.4,0.4c3,0,4.5-4.6,5.5-7.6
				c1.3-3.8-3.9-7.2-7.7-8.5c-0.1,0-0.2-0.1-0.3-0.1C433.1,152.3,448.4,140.1,448.4,131.8z"/>
			<path class="st5" d="M435.1,103.1l-8,5.9l-3.8,2.8c-5.3-8.4-11.9-18.2-18.2-26.8c-2.4-3.2-1.6-7.8,1.6-10.1
				c3.2-2.4,7.7-1.7,10.1,1.6C422.2,83.7,429.1,93.5,435.1,103.1z"/>
			<path class="st16" d="M435.5,100.3l-8.7,5.4l-7.4,4.6l-1.3-2l-3.7-6.1c-2.6-4.3-5.1-8.1-6.8-10.8c-1.8-2.7-2.9-4.5-2.9-4.5
				c-0.7-1.1-1.2-2.4-1.4-3.6c-0.6-3.6,0.9-7.4,4.2-9.5c1.1-0.7,2.4-1.2,3.6-1.4c0.7-0.1,1.4-0.2,2.1-0.1c2.9,0.2,5.7,1.6,7.4,4.3
				c0.2,0.3,4.6,7,10,15.7l3.7,6L435.5,100.3z"/>
			<path class="st17" d="M426.8,105.7l-7.4,4.6l-1.3-2l-3.7-6.1c-2.6-4.3-5.1-8.1-6.8-10.8c-1.8-2.7-2.9-4.5-2.9-4.5
				c-0.7-1.1-1.2-2.4-1.4-3.6c-0.6-3.6,0.9-7.4,4.2-9.5c1.1-0.7,2.4-1.2,3.6-1.4c0.7-0.1,1.4-0.2,2.1-0.1c1.5,1.4,2.7,3.1,3.5,5.2
				c0.2,0.4,4.1,11,8.9,24.6L426.8,105.7z"/>
			<path class="st16" d="M416.6,79.3c-4.2,24.3-12.5,85.4-10.7,109.9h-61c0,0,0.7-16.4,1.9-37c1.6-27.3,4.2-61.9,7.4-75
				c0.1-0.2,0.1-0.4,0.1-0.5c0.7-2.6,3.1-4.5,5.8-4.5h50.5C414.4,72.3,417.3,75.6,416.6,79.3z"/>
			<path class="st15" d="M397.4,12.9c-5.8,7.5-39.8,12-39.8-4.7c0-3.6,2.4-5.3,2.4-5.3s0.3,2.5,1.5,3.3c0,0,5.8-3.4,11.7-4.6
				c0,0-1.1,2.6,3.2,2C388.8,1.9,407,0.5,397.4,12.9z"/>
			<path class="st17" d="M369.6,89.5c0,0.1-0.4,2.4-0.9,6c-0.5,3.7-1.3,8.8-2,14.5l-1.1,8l-18.8,34.2c1.6-27.3,4.2-61.9,7.4-75
				c0.7-0.6,1.6-1,2.4-1.3c1.5-0.5,3.2-0.5,5,0c3.5,1,6.3,4.1,7.4,7.8C369.7,85.6,369.9,87.6,369.6,89.5z"/>
			<path class="st15" d="M373.7,7.8c-6.2,1.7-11.6,12.6-12.2,19c-1,11.9,7.9,30.5,26.4,30.5c22.1,0,24.2-23.6,23.1-29.5
				c-1.1-5.9-4.7-19.1-14.2-20.3C391.3,6.8,380.4,6,373.7,7.8z"/>
			<path class="st3" d="M364.2,75.3C364.1,75.2,364.1,75.2,364.2,75.3c-0.7-0.4-1.4-0.7-2.2-0.8c-1.7-0.4-3.4-0.3-4.9,0.2
				c-1.6,0.5-3,1.4-4.1,2.6c0,0-0.1,0.1-0.1,0.1c-0.3,0.5-0.5,1.2-0.6,1.8c-0.3,1.2-3.3,15-6.5,30.4c-3.4,15.9-6.9,33.4-8,40.5
				c-2.2,14.9-25.4,26.8-34.2,30.1c-0.1,0.1-0.3,0.1-0.4,0.2c-0.3,0.1-0.6,0.2-0.8,0.4c-0.2,0.1-0.5,0.3-0.7,0.5
				c-0.1,0.1-0.3,0.2-0.4,0.3c0,0-0.1,0.1-0.1,0.1c0,0,0,0,0,0c-1.9,1.7-9.2,9.1-8.3,18c0.4,3.7,0.4,4.7,4,5.8
				c1.8,0.5,3.6,0.5,5.5,0.5c4,0,6.3-1.2,5.9-5.1c-0.1-1-2-10.5-0.3-12.3c20.7-8.8,40.6-12.6,44.2-36.4c0.9-6.4,4.2-22.3,7.3-37.3
				c3.5-16.7,6.9-32.3,7-32.6C367,79.6,366,77,364.2,75.3z"/>
			<path class="st5" d="M366.4,82.2c-0.1,0.3-3.5,15.9-7,32.6l-13.6-5.4c3.2-15.4,6.2-29.2,6.5-30.4c0.1-0.6,0.4-1.2,0.6-1.8
				c0-0.1,0.1-0.1,0.1-0.1c1.1-1.2,2.5-2.1,4.1-2.6c1.5-0.5,3.2-0.6,4.9-0.2c0.8,0.2,1.5,0.4,2.1,0.8c0,0,0,0,0.1,0
				C366,77,367,79.6,366.4,82.2z"/>
			<path class="st16" d="M344.9,107.2l18.6,3.7l0.5-2.3l1.4-7c1-4.9,1.9-9.3,2.6-12.5c0.7-3.2,1.1-5.2,1.1-5.2
				c0.4-1.7,0.3-3.4-0.2-4.9c-1-3.1-3.5-5.6-7-6.4c-1.7-0.4-3.4-0.3-4.9,0.2c-3.1,1-5.6,3.6-6.4,7c-0.1,0.3-1.8,8.1-3.8,18.2l-1.4,7
				L344.9,107.2z"/>
			<g>
				<path class="st18" d="M331.1,291c-0.5,0.4-1,0.9-1.3,1.4c-1.8,4.1-9,13.3-13.5,16.4c-4.8,3.3-3.8,6,3.5,2.4
					c7.3-3.6,12.3-6.9,15.6-8.4c3.3-1.5,4.8-1.6,12.8-5.6c6.1-3-1.7-8.9-5.7-11.5c-1.2-0.8-2.8-0.7-4.1,0.1L331.1,291z"/>
			</g>
			<g>
				<path class="st18" d="M336.3,354.2c-0.4,0.5-0.6,1.2-0.6,1.8c-0.2,4.5-2.5,14.6-7.8,18c-4.9,3.1-3.4,5.5,4.1,2.4
					c6.7-2.8,10.3-10.2,12.8-12.8c2.5-2.6,3.8-3.3,9.8-9.9c4.6-5.1-4.9-7.6-9.5-8.5c-1.4-0.3-2.9,0.4-3.7,1.6L336.3,354.2z"/>
			</g>
		</g>
		<g>
			<defs>
				<path id="SVGID_3_" d="M448.4,131.8c0-5.6-5.9-16.9-13.3-28.7c-0.4-0.6-0.8-1.2-1.2-1.8l1.5-0.9l-1.3-2l-3.7-6
					c-5.4-8.7-9.8-15.5-10-15.7c-1.7-2.6-4.5-4.1-7.4-4.3c-0.6,0-1.2,0-1.7,0.1c-0.3,0-0.5-0.1-0.8-0.1h-15.3
					c0.6-3.5,0.7-6.9,0.5-10.1c6-3.2,10.4-10.5,12.7-17.1c0.4-0.1,0.8-0.3,1.2-0.6c2-1.7,3.3-4.3,3.3-7.1c0-2-0.7-3.9-1.8-5.4
					c0.1-1.7,0-3.2-0.2-4.1c-1-5.3-3.9-16.2-11.2-19.5c1.9-7.4-12.9-6.2-23.6-4.8c-4.3,0.6-3.2-2-3.2-2c-5.8,1.3-11.7,4.6-11.7,4.6
					c-1.2-0.7-1.5-3.3-1.5-3.3s-2.4,1.7-2.4,5.3c0,4.1,2,6.9,5.2,8.7c-3,3.8-5.1,8.2-6.3,12.5c-0.8,0-1.6,0.2-2.2,0.8
					c-2,1.7-3.3,4.3-3.3,7.1c0,2.9,1.3,5.4,3.3,7.1c0.9,0.7,1.9,1,2.9,0.8c2.5,7.3,10.1,18.9,21.6,19.7c0.1,3.2-0.3,5.5-1,7.3h-17.7
					c-0.1,0-0.1,0-0.2,0c-1,0-2,0.1-3,0.4c-3.1,1-5.6,3.6-6.4,7c-0.1,0.3-1.8,8.1-3.8,18.2l-1.4,7l-0.5,2.3l1.2,0.2
					c-0.1,0.7-0.3,1.4-0.4,2c-3.4,15.9-6.9,33.4-8,40.5c-2.2,14.9-25.4,26.8-34.2,30.1c-0.1,0.1-0.3,0.1-0.4,0.2
					c-0.3,0.1-0.6,0.2-0.8,0.4c-0.2,0.1-0.5,0.3-0.7,0.5c-0.1,0.1-0.3,0.2-0.4,0.3c0,0-0.1,0.1-0.1,0.1c0,0,0,0,0,0
					c-1.9,1.7-9.2,9.1-8.3,18c0.3,3.2,0.4,4.4,2.6,5.3c-19.8,0.6-27.9,2.9-32.3,11.1c-2.2,4-3.7,10.6,1.9,19.4
					c8.5,13.3,29.7,31.2,46.3,44.3c1.3,8.7,3.7,18.1,6.6,27.7c-0.6,0.5-1.2,1-1.7,1.4c-4.7,3.2-3.8,5.8,3,2.6
					c4.8,15.2,10.9,30.8,16.3,45c-0.3,4.7-2.7,14.2-7.8,17.5c-4.9,3.1-3.4,5.5,4.1,2.4c6.7-2.8,10.3-10.2,12.8-12.8
					c2.5-2.6,3.8-3.3,9.8-9.9c4.6-5.1-4.9-7.6-9.5-8.5c0,0-0.1,0-0.1,0c-3.5-13-6.4-28.5-8.2-42.8c2.6-1.1,4.6-1.6,11.5-5
					c6.1-3-1.7-8.9-5.7-11.5c0,0-0.1,0-0.1-0.1l0.4-0.5c-2.3-1.9-5.2-4.5-8.4-7.7c-0.4-8-0.2-14.3,0.7-18c3.7-16,28-26,45.6-30.8
					h22.6c0,0,5.9-10.8,3.8-31.5h0.5v-1.3h-0.6c-0.2-2.2-0.6-4.5-1-6.9l0,0c-0.2-2.6-0.3-5.7-0.2-9.1c2,1.5,4.3,3,6.8,3.9
					c0.8,0.3,1.6,0.4,2.4,0.4c3,0,4.5-4.6,5.5-7.6c1.3-3.8-3.9-7.2-7.7-8.5c-0.1,0-0.2-0.1-0.3-0.1
					C433.1,152.3,448.4,140.1,448.4,131.8z M308.3,200.9c-0.1-1-2-10.5-0.3-12.3c15.1-6.4,29.8-10.2,38-21.1
					c-0.7,12.8-1,21.6-1,21.7h0c0,0-0.3,6.5-0.3,15.8c-5.9,0-11.4-0.1-16.5-0.1c-8-0.1-14.9-0.1-21.1-0.1
					C308,204.1,308.5,202.8,308.3,200.9z M291.1,229.6c8.6-0.4,21.6-0.4,35.2-0.3c-6.9,6.5-12.3,14.3-14.7,23.9
					C304.1,244.7,296.7,236.2,291.1,229.6z M406.6,160.1c1.4-19.1,4.2-41.7,6.7-59.5c0.4,0.6,0.7,1.2,1.1,1.8l3.7,6.1l1.3,2l2.2-1.4
					c0.6,0.9,1.2,1.9,1.8,2.8c5.5,8.7,9.6,16,10.4,19.2C431.4,135.6,419,148.5,406.6,160.1z"/>
			</defs>
			<clipPath id="SVGID_4_">
				<use xlink:href="#SVGID_3_"  style="overflow:visible;"/>
			</clipPath>
			<path class="st19" d="M510,33.4C486.9,10,466.3,0.9,436.9,2c-22.4,0.9-45.6,4.4-58.2,36.1c-19.3,48.4,21.9,75.4,15.5,123.9
				c-5.5,41.7-41.9,41.5-52,85.4c-5.3,22.9,6,53.6,34.4,85.7c50.1,56.6,161.9,65.2,193.5-53.5C593.1,193.1,558.2,82.1,510,33.4z"/>
		</g>
		<g>
			<rect x="342.8" y="228.3" class="st20" width="64.7" height="188.4"/>
			<rect x="432.5" y="372.1" class="st21" width="64.7" height="44.6"/>
			<rect x="253" y="338.9" class="st21" width="64.7" height="77.8"/>
			<rect x="163.7" y="290.9" class="st21" width="64.7" height="125.8"/>
			<path class="st22" d="M29,424.9h480.9c2.3,0,4.1-1.8,4.1-4.1l0,0c0-2.3-1.8-4.1-4.1-4.1H29c-2.3,0-4.1,1.8-4.1,4.1l0,0
				C24.9,423.1,26.7,424.9,29,424.9z"/>
		</g>
	</g>
</g>
</svg>
