<?xml version="1.0" encoding="utf-8"?>
<!-- Generator: Adobe Illustrator 22.0.0, SVG Export Plug-In . SVG Version: 6.00 Build 0)  -->
<svg version="1.1" id="Layer_1" xmlns="http://www.w3.org/2000/svg" xmlns:xlink="http://www.w3.org/1999/xlink" x="0px" y="0px"
	 viewBox="0 0 34 34" style="enable-background:new 0 0 34 34;" xml:space="preserve">
<style type="text/css">
	.st0{fill:#2CA7E0;}
	.st1{fill:#FFFFFF;}
</style>
<g>
	<g id="g2986">
		<path id="path3" class="st0" d="M17,34C7.6,34,0,26.4,0,17C0,7.6,7.6,0,17,0s17,7.6,17,17C34,26.4,26.4,34,17,34z"/>
	</g>
	<g id="形状_2">
		<g>
			<path class="st1" d="M24.1,12.6c-0.5,0.2-1.1,0.4-1.7,0.5c0.6-0.4,1.1-0.9,1.3-1.6c-0.6,0.3-1.2,0.6-1.8,0.7
				c-0.5-0.6-1.3-0.9-2.1-0.9c-1.6,0-2.9,1.3-2.9,2.9c0,0.2,0,0.5,0.1,0.7c-2.4-0.1-4.6-1.3-6-3c-0.3,0.4-0.4,0.9-0.4,1.5
				c0,1,0.5,1.9,1.3,2.4c-0.5,0-0.9-0.1-1.3-0.4c0,0,0,0,0,0c0,1.4,1,2.6,2.3,2.9c-0.2,0.1-0.5,0.1-0.8,0.1c-0.2,0-0.4,0-0.5-0.1
				c0.4,1.2,1.4,2,2.7,2c-1,0.8-2.3,1.2-3.6,1.2c-0.2,0-0.5,0-0.7,0c1.3,0.8,2.8,1.3,4.5,1.3c5.4,0,8.3-4.4,8.3-8.3
				c0-0.1,0-0.3,0-0.4C23.2,13.7,23.7,13.2,24.1,12.6z"/>
		</g>
	</g>
</g>
</svg>
